# xmcd CD database file
#
# Track frame offsets:
#	150
#	23647
#	39701
#	55677
#	71071
#	90074
#	110948
#	125731
#	145020
#	159226
#
# Disc length: 2328 seconds
#
# Revision: 3
# Processed by: cddbd v1.5.2PL0 Copyright (c) Steve Scherf et al.
# Submitted via: CDex 1.79
#
DISCID=8009160a
DTITLE=Alan Jackson - Angels And Alcohol
DYEAR=2015
DGENRE=Country
TTITLE0=You Can Always Come Home
TTITLE1=You Never Know
TTITLE2=Angels And Alcohol
TTITLE3=Gone Before You Met Me
TTITLE4=The One You're Waiting On
TTITLE5=Jim And Jack And Hank
TTITLE6=I Leave A Light On
TTITLE7=Flaws
TTITLE8=When God Paints
TTITLE9=Mexico, Tequila And Me
EXTD=YEAR: 2015
EXTT0=
EXTT1=
EXTT2=
EXTT3=
EXTT4=
EXTT5=
EXTT6=
EXTT7=
EXTT8=
EXTT9=
PLAYORDER=
